<?xml version="1.0" encoding="iso-8859-1"?>
<!-- Generator: Adobe Illustrator 21.0.2, SVG Export Plug-In . SVG Version: 6.00 Build 0)  -->
<svg version="1.1" xmlns="http://www.w3.org/2000/svg" xmlns:xlink="http://www.w3.org/1999/xlink" x="0px" y="0px"
	 viewBox="0 0 64 64" style="enable-background:new 0 0 64 64;" xml:space="preserve">
<g id="css">
</g>
<g id="mobile_development">
</g>
<g id="code">
</g>
<g id="hardware_programming">
</g>
<g id="python">
</g>
<g id="development">
</g>
<g id="update">
</g>
<g id="maintenance">
</g>
<g id="peformance_testing">
</g>
<g id="programming">
</g>
<g id="hacker">
</g>
<g id="web_programming">
	<g>
		<path d="M58.4922,5.8721H5.5078C3.022,5.8721,1,7.8945,1,10.3799v43.2402c0,2.4854,2.022,4.5078,4.5078,4.5078h52.9844
			c2.4858,0,4.5078-2.0225,4.5078-4.5078V10.3799C63,7.8945,60.978,5.8721,58.4922,5.8721z M5.5078,7.8721h52.9844
			C59.875,7.8721,61,8.9971,61,10.3799v6.8887H3v-6.8887C3,8.9971,4.125,7.8721,5.5078,7.8721z M58.4922,56.1279H5.5078
			C4.125,56.1279,3,55.0029,3,53.6201V19.2686h58v34.3516C61,55.0029,59.875,56.1279,58.4922,56.1279z"/>
		<path d="M46.7236,15.7842c1.7744,0,3.2178-1.4414,3.2178-3.2139c0-1.7744-1.4434-3.2178-3.2178-3.2178
			s-3.2178,1.4434-3.2178,3.2178C43.5059,14.3428,44.9492,15.7842,46.7236,15.7842z M46.7236,11.3525
			c0.6714,0,1.2178,0.5459,1.2178,1.2178c0,0.6689-0.5464,1.2139-1.2178,1.2139s-1.2178-0.5449-1.2178-1.2139
			C45.5059,11.8984,46.0522,11.3525,46.7236,11.3525z"/>
		<path d="M37.9287,15.7842c1.7744,0,3.2178-1.4414,3.2178-3.2139c0-1.7744-1.4434-3.2178-3.2178-3.2178
			c-1.7739,0-3.2173,1.4434-3.2173,3.2178C34.7114,14.3428,36.1548,15.7842,37.9287,15.7842z M37.9287,11.3525
			c0.6714,0,1.2178,0.5459,1.2178,1.2178c0,0.6689-0.5464,1.2139-1.2178,1.2139s-1.2173-0.5449-1.2173-1.2139
			C36.7114,11.8984,37.2573,11.3525,37.9287,11.3525z"/>
		<path d="M55.5186,15.7842c1.7739,0,3.2173-1.4414,3.2173-3.2139c0-1.7744-1.4434-3.2178-3.2173-3.2178
			c-1.7744,0-3.2178,1.4434-3.2178,3.2178C52.3008,14.3428,53.7441,15.7842,55.5186,15.7842z M55.5186,11.3525
			c0.6714,0,1.2173,0.5459,1.2173,1.2178c0,0.6689-0.5459,1.2139-1.2173,1.2139s-1.2178-0.5449-1.2178-1.2139
			C54.3008,11.8984,54.8472,11.3525,55.5186,11.3525z"/>
		<path d="M6.9644,23.416c-0.4419,0.3311-0.5313,0.958-0.1997,1.3994l0.0103,0.0137c0.1948,0.2607,0.4907,0.3965,0.791,0.3965
			c0.2095,0,0.4219-0.0664,0.6035-0.2031c0.4419-0.3311,0.5264-0.9648,0.1948-1.4063C8.0337,23.1738,7.4077,23.085,6.9644,23.416z"
			/>
		<path d="M7.2749,31.4922c0.2095,0,0.4219-0.0664,0.6035-0.2031c0.4419-0.3311,0.5264-0.9648,0.1948-1.4063
			c-0.3311-0.4424-0.9561-0.5313-1.3999-0.2002c-0.4419,0.3311-0.5313,0.958-0.1997,1.3994l0.0103,0.0137
			C6.6787,31.3564,6.9746,31.4922,7.2749,31.4922z"/>
		<path d="M6.4839,37.3857c0.1948,0.2607,0.4907,0.3965,0.791,0.3965c0.2095,0,0.4219-0.0664,0.6035-0.2031
			c0.4419-0.3311,0.5264-0.9648,0.1948-1.4063c-0.3311-0.4424-0.9561-0.5303-1.3999-0.2002
			c-0.4419,0.3311-0.5313,0.958-0.1997,1.3994L6.4839,37.3857z"/>
		<path d="M6.4839,43.9219c0.1948,0.2607,0.4907,0.3965,0.791,0.3965c0.2095,0,0.4219-0.0664,0.6035-0.2031
			c0.4419-0.3311,0.5264-0.9648,0.1948-1.4063c-0.3311-0.4424-0.9561-0.5313-1.3999-0.2002
			c-0.4419,0.3311-0.5313,0.958-0.1997,1.3994L6.4839,43.9219z"/>
		<path d="M6.7695,48.4775c-0.4771,0.2783-0.6382,0.8906-0.3599,1.3682l0.0103,0.0176c0.1846,0.3164,0.5137,0.4902,0.8535,0.4902
			c0.1724,0,0.3481-0.0449,0.5088-0.1387c0.4771-0.2783,0.6333-0.8994,0.355-1.377C7.8589,48.3623,7.248,48.2012,6.7695,48.4775z"/>
		<path d="M44.0615,44.3398c-0.3467-0.4297-0.9766-0.4961-1.4063-0.1484l-3.042,2.46c-0.2349,0.1895-0.3711,0.4756-0.3711,0.7773
			c0,0.3027,0.1367,0.5879,0.3716,0.7783l3.042,2.457c0.1851,0.1494,0.4072,0.2217,0.6279,0.2217
			c0.2915,0,0.5811-0.127,0.7783-0.3721c0.3472-0.4297,0.2803-1.0586-0.1494-1.4063l-2.0796-1.6787l2.0801-1.6826
			C44.3423,45.3994,44.4092,44.7695,44.0615,44.3398z"/>
		<path d="M48.3013,44.0264c-0.522-0.1846-1.0928,0.0859-1.2773,0.6064l-1.752,4.917c-0.1855,0.5205,0.0859,1.0928,0.6064,1.2783
			c0.1108,0.0391,0.2241,0.0576,0.3354,0.0576c0.4111,0,0.7964-0.2549,0.9419-0.6641l1.752-4.917
			C49.0933,44.7842,48.8218,44.2119,48.3013,44.0264z"/>
		<path d="M51.5103,44.1914c-0.4292-0.3486-1.0586-0.2803-1.4067,0.1484c-0.3472,0.4297-0.2803,1.0596,0.1489,1.4063l2.0801,1.6826
			l-2.0796,1.6787c-0.4297,0.3477-0.4966,0.9766-0.1494,1.4063c0.1973,0.2451,0.4868,0.3721,0.7783,0.3721
			c0.2207,0,0.4429-0.0723,0.6279-0.2217l3.0425-2.457c0.2349-0.1904,0.3716-0.4756,0.3716-0.7783
			c0-0.3018-0.1362-0.5879-0.3711-0.7773L51.5103,44.1914z"/>
		<path d="M13.7686,37.7793h13.7568c0.5522,0,1-0.4473,1-1s-0.4478-1-1-1H13.7686c-0.5522,0-1,0.4473-1,1
			S13.2163,37.7793,13.7686,37.7793z"/>
		<path d="M33.7129,42.0625H13.7686c-0.5522,0-1,0.4473-1,1s0.4478,1,1,1h19.9443c0.5522,0,1-0.4473,1-1
			S34.2651,42.0625,33.7129,42.0625z"/>
		<path d="M25.1641,48.3418H13.7686c-0.5522,0-1,0.4473-1,1s0.4478,1,1,1h11.3955c0.5522,0,1-0.4473,1-1
			S25.7163,48.3418,25.1641,48.3418z"/>
		<path d="M13.7686,31.4961h13.7568c0.5522,0,1-0.4473,1-1s-0.4478-1-1-1H13.7686c-0.5522,0-1,0.4473-1,1
			S13.2163,31.4961,13.7686,31.4961z"/>
		<path d="M13.7686,25.2158h13.7568c0.5522,0,1-0.4473,1-1s-0.4478-1-1-1H13.7686c-0.5522,0-1,0.4473-1,1
			S13.2163,25.2158,13.7686,25.2158z"/>
		<path d="M47.9658,23.2158H34.209c-0.5522,0-1,0.4473-1,1s0.4478,1,1,1h13.7568c0.5522,0,1-0.4473,1-1
			S48.5181,23.2158,47.9658,23.2158z"/>
		<path d="M47.9658,35.7793H34.209c-0.5522,0-1,0.4473-1,1s0.4478,1,1,1h13.7568c0.5522,0,1-0.4473,1-1
			S48.5181,35.7793,47.9658,35.7793z"/>
	</g>
</g>
<g id="html">
</g>
<g id="typing">
</g>
<g id="search_1_">
</g>
<g id="android">
</g>
<g id="coding">
</g>
<g id="file">
</g>
<g id="api">
</g>
<g id="java">
</g>
<g id="xml">
</g>
<g id="security">
</g>
<g id="algorithm">
</g>
<g id="php">
</g>
<g id="eror">
</g>
<g id="bug">
</g>
<g id="c_x2B__x2B_">
</g>
<g id="search">
</g>
<g id="binary">
</g>
<g id="database_sql">
</g>
</svg>
