<?xml version="1.0" encoding="UTF-8"?>
<!DOCTYPE svg PUBLIC "-//W3C//DTD SVG 1.1//EN" "http://www.w3.org/Graphics/SVG/1.1/DTD/svg11.dtd">
<!-- Creator: CorelDRAW -->
<svg xmlns="http://www.w3.org/2000/svg" xml:space="preserve" width="2048px" height="2048px" style="shape-rendering:geometricPrecision; text-rendering:geometricPrecision; image-rendering:optimizeQuality; fill-rule:evenodd; clip-rule:evenodd"
viewBox="0 0 2048 2048"
 xmlns:xlink="http://www.w3.org/1999/xlink">
 <defs>
  <style type="text/css">
   <![CDATA[
    .fil4 {fill:none}
    .fil0 {fill:#767676}
    .fil2 {fill:#858585;fill-rule:nonzero}
    .fil3 {fill:#959595;fill-rule:nonzero}
    .fil1 {fill:#BCBCBC;fill-rule:nonzero}
   ]]>
  </style>
 </defs>
 <g id="Layer_x0020_1">
  <metadata id="CorelCorpID_0Corel-Layer"/>
  <polygon class="fil0" points="377,1671 1785,1671 1785,1785 263,1785 263,263 377,263 "/>
  <path class="fil1" d="M1088 1392c22.089,0 42.0898,8.95631 56.5666,23.4343 14.478,14.4768 23.4343,34.4788 23.4343,56.5654 0,22.089 -8.95631,42.0898 -23.4343,56.5666 -14.4768,14.478 -34.4776,23.4343 -56.5666,23.4343 -22.0866,0 -42.0886,-8.95631 -56.5654,-23.4343 -14.478,-14.4768 -23.4343,-34.4776 -23.4343,-56.5666 0,-22.0866 8.95631,-42.0886 23.4343,-56.5654 14.4768,-14.478 34.4788,-23.4343 56.5654,-23.4343z"/>
  <path class="fil2" d="M1072 1024c22.089,0 42.0898,8.95631 56.5666,23.4343 14.478,14.4768 23.4343,34.4788 23.4343,56.5654 0,22.089 -8.95631,42.0898 -23.4343,56.5666 -14.4768,14.478 -34.4776,23.4343 -56.5666,23.4343 -22.0866,0 -42.0886,-8.95631 -56.5654,-23.4343 -14.478,-14.4768 -23.4343,-34.4776 -23.4343,-56.5666 0,-22.0866 8.95631,-42.0886 23.4343,-56.5654 14.4768,-14.478 34.4788,-23.4343 56.5654,-23.4343z"/>
  <path class="fil1" d="M704 847.998c22.089,0 42.0898,8.95631 56.5666,23.4343 14.478,14.4768 23.4343,34.4788 23.4343,56.5654 0,22.089 -8.95631,42.0898 -23.4343,56.5666 -14.4768,14.478 -34.4776,23.4343 -56.5666,23.4343 -22.0866,0 -42.0886,-8.95631 -56.5654,-23.4343 -14.478,-14.4768 -23.4343,-34.4776 -23.4343,-56.5666 0,-22.0866 8.95631,-42.0886 23.4343,-56.5654 14.4768,-14.478 34.4788,-23.4343 56.5654,-23.4343z"/>
  <path class="fil3" d="M752 1120c22.089,0 42.0898,8.95631 56.5666,23.4343 14.478,14.4768 23.4343,34.4788 23.4343,56.5654 0,22.089 -8.95631,42.0898 -23.4343,56.5666 -14.4768,14.478 -34.4776,23.4343 -56.5666,23.4343 -22.0866,0 -42.0886,-8.95631 -56.5654,-23.4343 -14.478,-14.4768 -23.4343,-34.4776 -23.4343,-56.5666 0,-22.0866 8.95631,-42.0886 23.4343,-56.5654 14.4768,-14.478 34.4788,-23.4343 56.5654,-23.4343z"/>
  <path class="fil2" d="M864.001 527.998c22.089,0 42.0898,8.95631 56.5666,23.4343 14.478,14.4768 23.4343,34.4788 23.4343,56.5654 0,22.089 -8.95631,42.0898 -23.4343,56.5666 -14.4768,14.478 -34.4776,23.4343 -56.5666,23.4343 -22.0866,0 -42.0886,-8.95631 -56.5654,-23.4343 -14.478,-14.4768 -23.4343,-34.4776 -23.4343,-56.5666 0,-22.0866 8.95631,-42.0886 23.4343,-56.5654 14.4768,-14.478 34.4788,-23.4343 56.5654,-23.4343z"/>
  <path class="fil3" d="M1463.43 1159.43c22.089,0 42.0898,8.95631 56.5666,23.4343 14.478,14.4768 23.4343,34.4788 23.4343,56.5654 0,22.089 -8.95631,42.0898 -23.4343,56.5666 -14.4768,14.478 -34.4776,23.4343 -56.5666,23.4343 -22.0866,0 -42.0886,-8.95631 -56.5654,-23.4343 -14.478,-14.4768 -23.4343,-34.4776 -23.4343,-56.5666 0,-22.0866 8.95631,-42.0886 23.4343,-56.5654 14.4768,-14.478 34.4788,-23.4343 56.5654,-23.4343z"/>
  <path class="fil3" d="M576 495.998c22.089,0 42.0898,8.95631 56.5666,23.4343 14.478,14.4768 23.4343,34.4788 23.4343,56.5654 0,22.089 -8.95631,42.0898 -23.4343,56.5666 -14.4768,14.478 -34.4776,23.4343 -56.5666,23.4343 -22.0866,0 -42.0886,-8.95631 -56.5654,-23.4343 -14.478,-14.4768 -23.4343,-34.4776 -23.4343,-56.5666 0,-22.0866 8.95631,-42.0886 23.4343,-56.5654 14.4768,-14.478 34.4788,-23.4343 56.5654,-23.4343z"/>
 </g>
 <rect class="fil4" width="2048" height="2048"/>
</svg>
