<svg id="visual" viewBox="0 0 900 200" width="900" height="200" xmlns="http://www.w3.org/2000/svg" xmlns:xlink="http://www.w3.org/1999/xlink" version="1.1"><rect x="0" y="0" width="900" height="200" fill="#4B4B4B"></rect><path d="M0 63L21.5 62.7C43 62.3 86 61.7 128.8 63.3C171.7 65 214.3 69 257.2 67.3C300 65.7 343 58.3 385.8 55C428.7 51.7 471.3 52.3 514.2 57.3C557 62.3 600 71.7 642.8 75C685.7 78.3 728.3 75.7 771.2 73.2C814 70.7 857 68.3 878.5 67.2L900 66L900 0L878.5 0C857 0 814 0 771.2 0C728.3 0 685.7 0 642.8 0C600 0 557 0 514.2 0C471.3 0 428.7 0 385.8 0C343 0 300 0 257.2 0C214.3 0 171.7 0 128.8 0C86 0 43 0 21.5 0L0 0Z" fill="#373737"></path><path d="M0 40L21.5 42.2C43 44.3 86 48.7 128.8 49.3C171.7 50 214.3 47 257.2 47.5C300 48 343 52 385.8 53.2C428.7 54.3 471.3 52.7 514.2 51.7C557 50.7 600 50.3 642.8 49.5C685.7 48.7 728.3 47.3 771.2 47.3C814 47.3 857 48.7 878.5 49.3L900 50L900 0L878.5 0C857 0 814 0 771.2 0C728.3 0 685.7 0 642.8 0C600 0 557 0 514.2 0C471.3 0 428.7 0 385.8 0C343 0 300 0 257.2 0C214.3 0 171.7 0 128.8 0C86 0 43 0 21.5 0L0 0Z" fill="#545454"></path><path d="M0 51L21.5 50.7C43 50.3 86 49.7 128.8 47.3C171.7 45 214.3 41 257.2 38.7C300 36.3 343 35.7 385.8 35C428.7 34.3 471.3 33.7 514.2 36.3C557 39 600 45 642.8 48.2C685.7 51.3 728.3 51.7 771.2 49.5C814 47.3 857 42.7 878.5 40.3L900 38L900 0L878.5 0C857 0 814 0 771.2 0C728.3 0 685.7 0 642.8 0C600 0 557 0 514.2 0C471.3 0 428.7 0 385.8 0C343 0 300 0 257.2 0C214.3 0 171.7 0 128.8 0C86 0 43 0 21.5 0L0 0Z" fill="#6f6f6f"></path><path d="M0 30L21.5 28.7C43 27.3 86 24.7 128.8 25.7C171.7 26.7 214.3 31.3 257.2 32.2C300 33 343 30 385.8 27.3C428.7 24.7 471.3 22.3 514.2 21.8C557 21.3 600 22.7 642.8 24.5C685.7 26.3 728.3 28.7 771.2 29.3C814 30 857 29 878.5 28.5L900 28L900 0L878.5 0C857 0 814 0 771.2 0C728.3 0 685.7 0 642.8 0C600 0 557 0 514.2 0C471.3 0 428.7 0 385.8 0C343 0 300 0 257.2 0C214.3 0 171.7 0 128.8 0C86 0 43 0 21.5 0L0 0Z" fill="#545454"></path><path d="M0 20L21.5 18C43 16 86 12 128.8 12.2C171.7 12.3 214.3 16.7 257.2 18.3C300 20 343 19 385.8 17.2C428.7 15.3 471.3 12.7 514.2 12.7C557 12.7 600 15.3 642.8 16.8C685.7 18.3 728.3 18.7 771.2 17C814 15.3 857 11.7 878.5 9.8L900 8L900 0L878.5 0C857 0 814 0 771.2 0C728.3 0 685.7 0 642.8 0C600 0 557 0 514.2 0C471.3 0 428.7 0 385.8 0C343 0 300 0 257.2 0C214.3 0 171.7 0 128.8 0C86 0 43 0 21.5 0L0 0Z" fill="#373737"></path></svg>