<svg id="visual" viewBox="0 0 900 200" width="900" height="200" xmlns="http://www.w3.org/2000/svg" xmlns:xlink="http://www.w3.org/1999/xlink" version="1.1"><rect x="0" y="0" width="900" height="200" fill="#4B4B4B"></rect><path d="M0 63L21.5 65C43 67 86 71 128.8 71.2C171.7 71.3 214.3 67.7 257.2 65.3C300 63 343 62 385.8 60.7C428.7 59.3 471.3 57.7 514.2 61.2C557 64.7 600 73.3 642.8 75.7C685.7 78 728.3 74 771.2 69.8C814 65.7 857 61.3 878.5 59.2L900 57L900 0L878.5 0C857 0 814 0 771.2 0C728.3 0 685.7 0 642.8 0C600 0 557 0 514.2 0C471.3 0 428.7 0 385.8 0C343 0 300 0 257.2 0C214.3 0 171.7 0 128.8 0C86 0 43 0 21.5 0L0 0Z" fill="#6f6f6f"></path><path d="M0 57L21.5 54C43 51 86 45 128.8 42C171.7 39 214.3 39 257.2 41C300 43 343 47 385.8 47.2C428.7 47.3 471.3 43.7 514.2 44.2C557 44.7 600 49.3 642.8 49.2C685.7 49 728.3 44 771.2 45C814 46 857 53 878.5 56.5L900 60L900 0L878.5 0C857 0 814 0 771.2 0C728.3 0 685.7 0 642.8 0C600 0 557 0 514.2 0C471.3 0 428.7 0 385.8 0C343 0 300 0 257.2 0C214.3 0 171.7 0 128.8 0C86 0 43 0 21.5 0L0 0Z" fill="#5d5d5d"></path><path d="M0 30L21.5 31C43 32 86 34 128.8 34.2C171.7 34.3 214.3 32.7 257.2 35.3C300 38 343 45 385.8 45.5C428.7 46 471.3 40 514.2 39.2C557 38.3 600 42.7 642.8 44C685.7 45.3 728.3 43.7 771.2 42.7C814 41.7 857 41.3 878.5 41.2L900 41L900 0L878.5 0C857 0 814 0 771.2 0C728.3 0 685.7 0 642.8 0C600 0 557 0 514.2 0C471.3 0 428.7 0 385.8 0C343 0 300 0 257.2 0C214.3 0 171.7 0 128.8 0C86 0 43 0 21.5 0L0 0Z" fill="#4b4b4b"></path><path d="M0 25L21.5 23.8C43 22.7 86 20.3 128.8 22.5C171.7 24.7 214.3 31.3 257.2 33.2C300 35 343 32 385.8 30.7C428.7 29.3 471.3 29.7 514.2 30.7C557 31.7 600 33.3 642.8 32.5C685.7 31.7 728.3 28.3 771.2 26C814 23.7 857 22.3 878.5 21.7L900 21L900 0L878.5 0C857 0 814 0 771.2 0C728.3 0 685.7 0 642.8 0C600 0 557 0 514.2 0C471.3 0 428.7 0 385.8 0C343 0 300 0 257.2 0C214.3 0 171.7 0 128.8 0C86 0 43 0 21.5 0L0 0Z" fill="#414141"></path><path d="M0 22L21.5 19.8C43 17.7 86 13.3 128.8 13.3C171.7 13.3 214.3 17.7 257.2 17.8C300 18 343 14 385.8 13.2C428.7 12.3 471.3 14.7 514.2 15.8C557 17 600 17 642.8 15.7C685.7 14.3 728.3 11.7 771.2 12.2C814 12.7 857 16.3 878.5 18.2L900 20L900 0L878.5 0C857 0 814 0 771.2 0C728.3 0 685.7 0 642.8 0C600 0 557 0 514.2 0C471.3 0 428.7 0 385.8 0C343 0 300 0 257.2 0C214.3 0 171.7 0 128.8 0C86 0 43 0 21.5 0L0 0Z" fill="#373737"></path></svg>