<svg width="24" height="24" viewBox="0 0 24 24" fill="none" xmlns="http://www.w3.org/2000/svg">
<rect width="24" height="24" fill="none"/>
<g clip-path="url(#clip0_0_1)">
<g filter="url(#filter0_d_0_1)">
<path d="M12 2C10.0222 2 8.08879 2.58649 6.4443 3.6853C4.79981 4.78412 3.51809 6.3459 2.76121 8.17317C2.00433 10.0004 1.8063 12.0111 2.19215 13.9509C2.578 15.8907 3.53041 17.6725 4.92894 19.0711C6.32746 20.4696 8.10929 21.422 10.0491 21.8079C11.9889 22.1937 13.9996 21.9957 15.8268 21.2388C17.6541 20.4819 19.2159 19.2002 20.3147 17.5557C21.4135 15.9112 22 13.9778 22 12C21.9971 9.34873 20.9426 6.80688 19.0679 4.93215C17.1931 3.05742 14.6513 2.00291 12 2ZM12 20C10.4178 20 8.87104 19.5308 7.55544 18.6518C6.23985 17.7727 5.21447 16.5233 4.60897 15.0615C4.00347 13.5997 3.84504 11.9911 4.15372 10.4393C4.4624 8.88743 5.22433 7.46197 6.34315 6.34315C7.46197 5.22433 8.88743 4.4624 10.4393 4.15372C11.9911 3.84504 13.5997 4.00346 15.0615 4.60896C16.5233 5.21447 17.7727 6.23984 18.6518 7.55544C19.5308 8.87103 20 10.4177 20 12C19.9976 14.121 19.154 16.1544 17.6542 17.6542C16.1545 19.154 14.121 19.9976 12 20Z" fill="#5BA9D6"/>
<path d="M12 20.5H12.0006C14.254 20.4975 16.4144 19.6012 18.0078 18.0078C19.6012 16.4144 20.4975 14.254 20.5 12.0006V12C20.5 10.3189 20.0015 8.67547 19.0675 7.27765C18.1335 5.87984 16.806 4.79037 15.2528 4.14702C13.6996 3.50368 11.9906 3.33535 10.3417 3.66333C8.6929 3.9913 7.17834 4.80085 5.9896 5.98959C4.80085 7.17834 3.9913 8.69289 3.66333 10.3417C3.33536 11.9906 3.50368 13.6996 4.14703 15.2528C4.79037 16.806 5.87984 18.1335 7.27766 19.0675C8.67548 20.0015 10.3189 20.5 12 20.5ZM6.72209 4.10104C8.28428 3.05722 10.1209 2.50005 11.9997 2.5C14.5185 2.50284 16.9333 3.50467 18.7143 5.2857C20.4954 7.0668 21.4972 9.4817 21.5 12.0005C21.4999 13.8793 20.9427 15.7158 19.899 17.2779C18.8551 18.8402 17.3714 20.0578 15.6355 20.7769C13.8996 21.4959 11.9895 21.684 10.1466 21.3175C8.30383 20.9509 6.61109 20.0461 5.28249 18.7175C3.95389 17.3889 3.0491 15.6962 2.68254 13.8534C2.31598 12.0105 2.50412 10.1004 3.22315 8.36451C3.94218 6.62861 5.15982 5.14491 6.72209 4.10104Z" stroke="#5BA9D6"/>
</g>
<path d="M12.7069 8.70703L11.2929 7.29303L6.58594 12L11.2929 16.707L12.7069 15.293L10.4139 13H15.9999V11H10.4139L12.7069 8.70703Z" fill="#5BA9D6"/>
</g>
<defs>
<filter id="filter0_d_0_1" x="-2" y="2" width="28" height="28" filterUnits="userSpaceOnUse" color-interpolation-filters="sRGB">
<feFlood flood-opacity="0" result="BackgroundImageFix"/>
<feColorMatrix in="SourceAlpha" type="matrix" values="0 0 0 0 0 0 0 0 0 0 0 0 0 0 0 0 0 0 127 0" result="hardAlpha"/>
<feOffset dy="4"/>
<feGaussianBlur stdDeviation="2"/>
<feComposite in2="hardAlpha" operator="out"/>
<feColorMatrix type="matrix" values="0 0 0 0 0 0 0 0 0 0 0 0 0 0 0 0 0 0 0.25 0"/>
<feBlend mode="normal" in2="BackgroundImageFix" result="effect1_dropShadow_0_1"/>
<feBlend mode="normal" in="SourceGraphic" in2="effect1_dropShadow_0_1" result="shape"/>
</filter>
<clipPath id="clip0_0_1">
<rect width="24" height="24" fill="none"/>
</clipPath>
</defs>
</svg>
