<svg width="128" height="128" viewBox="0 0 128 128" fill="none" xmlns="http://www.w3.org/2000/svg">
<rect width="128" height="128" fill="none"/>
<g clip-path="url(#clip0_0_1)">
<mask id="mask0_0_1" style="mask-type:luminance" maskUnits="userSpaceOnUse" x="0" y="0" width="128" height="128">
<path d="M128 0H0V128H128V0Z" fill="white"/>
</mask>
<g mask="url(#mask0_0_1)">
<path d="M64 0.299805C28.7 0.299805 0 28.7998 0 63.9998C0 99.1998 28.7 127.7 64 127.7C99.3 127.7 128 99.1998 128 63.9998C128 28.7998 99.3 0.299805 64 0.299805ZM64 121.3C32.2 121.3 6.4 95.6998 6.4 63.9998C6.4 32.2998 32.2 6.69981 64 6.69981C95.8 6.69981 121.6 32.3998 121.6 63.9998C121.6 95.6998 95.8 121.3 64 121.3ZM38.4 58.8998V65.9998C38.4 68.1998 40.2 69.8998 42.3 69.8998L57.6 57.6998V86.3998C57.6 88.5998 59.9 89.5998 62 89.5998H66C68.2 89.5998 69.9 87.7998 69.9 85.6998V57.1998L85.7 69.8998C87.9 69.8998 89.6 68.0998 89.6 65.9998V58.8998L64 32.1998L38.4 58.8998Z" fill="#A88138"/>
</g>
</g>
<defs>
<clipPath id="clip0_0_1">
<rect width="128" height="128" fill="white"/>
</clipPath>
</defs>
</svg>
