<svg width="64" height="64" viewBox="0 0 64 64" fill="none" xmlns="http://www.w3.org/2000/svg">
<path d="M32.0004 12.4488C32.8401 13.5052 34.1249 14.1972 35.5816 14.1972C38.1055 14.1972 40.1592 12.1542 40.1592 9.64354C40.1592 7.13284 38.1055 5.08984 35.5816 5.08984C34.1249 5.08984 32.8401 5.78184 32.0004 6.83824C31.1612 5.78184 29.8775 5.08984 28.4219 5.08984C25.896 5.08984 23.8408 7.13284 23.8408 9.64354C23.8408 12.1542 25.896 14.1972 28.4219 14.1972C29.8774 14.1972 31.1612 13.5051 32.0004 12.4488ZM35.5815 7.08974C37.0029 7.08974 38.1591 8.23524 38.1591 9.64344C38.1591 11.0516 37.0028 12.1971 35.5815 12.1971C34.1582 12.1972 33 11.0517 33 9.64354C33 8.23534 34.1582 7.08974 35.5815 7.08974ZM25.8408 9.64354C25.8408 8.23534 26.9985 7.08984 28.4219 7.08984C29.8433 7.08974 31 8.23534 31 9.64354C31 11.0517 29.8433 12.1972 28.4219 12.1972C26.9985 12.1972 25.8408 11.0517 25.8408 9.64354Z" fill="#5BA9D6"/>
<path d="M52.4894 22.7793H47.4769C47.4019 21.6129 46.4391 20.6841 45.254 20.6841H38.7144V18.2125C41.233 17.859 43.3378 16.2005 44.3119 13.938H46.9342C48.715 13.938 50.1637 12.4893 50.1637 10.708V8.3193C50.1637 6.5385 48.715 5.0898 46.9342 5.0898H44.1862C43.0279 2.6754 40.5662 1 37.7145 1H26.2857C23.4857 1 21.0611 2.6147 19.8774 4.9585H17.066C15.2872 4.9585 13.8399 6.4072 13.8399 8.188V10.5801C13.8399 12.3594 15.2872 13.8067 17.066 13.8067H19.6357C20.5842 16.1356 22.7196 17.8531 25.2857 18.2137V20.6842H18.7461C17.561 20.6842 16.5982 21.613 16.5232 22.7794H11.5107C8.6718 22.7794 6.3623 25.089 6.3623 27.9278V30.6138C6.3623 31.9717 7.46681 33.0762 8.82471 33.0762H11.8765V40.0868C11.1438 40.4802 10.6387 41.2448 10.6387 42.1328V46.4541C10.6387 47.7393 11.6846 48.7852 12.9698 48.7852H17.4151C18.7003 48.7852 19.7462 47.7393 19.7462 46.4541V44.3945H21.1305V56.1674C19.6762 56.5896 18.6036 57.9192 18.6036 59.5078V61.3984C18.6036 62.2812 19.3238 63 20.2086 63H43.7882C44.6749 63 45.3966 62.2783 45.3966 61.3916V59.5078C45.3966 57.9192 44.324 56.5896 42.8697 56.1674V44.3945H44.254V46.4541C44.254 47.7393 45.2999 48.7852 46.5851 48.7852H51.0304C52.3156 48.7852 53.3615 47.7393 53.3615 46.4541V42.1328C53.3615 41.2447 52.8564 40.4802 52.1237 40.0868V33.0762H55.1755C56.5334 33.0762 57.6379 31.9717 57.6379 30.6138V27.9278C57.6378 25.0889 55.3282 22.7793 52.4894 22.7793ZM19.1401 11.8066H17.066C16.3897 11.8066 15.8399 11.2563 15.8399 10.58V8.188C15.8399 7.5103 16.3897 6.9585 17.066 6.9585H19.2167C19.148 7.3567 19.1046 7.7636 19.1046 8.1812V11.106C19.1046 11.3425 19.1177 11.5759 19.1401 11.8066ZM44.8131 7.0898H46.9342C47.6119 7.0898 48.1637 7.6416 48.1637 8.3193V10.708C48.1637 11.3862 47.6119 11.938 46.9342 11.938H44.8478C44.8496 11.9228 44.8488 11.9072 44.8504 11.892C44.8787 11.6336 44.8956 11.3718 44.8956 11.1059V8.1812C44.8956 7.8518 44.8654 7.53 44.8223 7.2121C44.8169 7.1718 44.8192 7.13 44.8131 7.0898ZM21.34 12.5676C21.3352 12.5483 21.342 12.5284 21.336 12.5093C21.3264 12.4782 21.3051 12.4464 21.2926 12.4152C21.1821 11.9945 21.1046 11.561 21.1046 11.106V8.1812C21.1046 5.3242 23.4288 3 26.2857 3H37.7144C40.1139 3 42.1187 4.6476 42.7052 6.8653C42.7358 6.9799 42.7748 7.0921 42.7972 7.2089C42.8575 7.5245 42.8955 7.8482 42.8955 8.1812V11.106C42.8955 11.4276 42.8569 11.7395 42.8006 12.045C42.784 12.1356 42.7604 12.2244 42.739 12.3138C42.1917 14.5893 40.1539 16.2905 37.7143 16.2905H26.2857C23.9394 16.2905 21.9754 14.7119 21.34 12.5676ZM27.2857 18.2905H36.7144V20.6841H27.2857V18.2905ZM8.3624 30.6138V27.9278C8.3624 26.192 9.77501 24.7794 11.5108 24.7794H16.5088V31.0763H12.8765H8.82481C8.57431 31.0762 8.3624 30.8643 8.3624 30.6138ZM16.5089 33.0762V39.8018H13.8766V33.0762H16.5089ZM17.7462 46.4541C17.7462 46.6338 17.5948 46.7852 17.4151 46.7852H12.9698C12.7901 46.7852 12.6387 46.6338 12.6387 46.4541V42.1328C12.6387 41.9531 12.7901 41.8017 12.9698 41.8017H17.4151C17.5948 41.8017 17.7462 41.9531 17.7462 42.1328V46.4541ZM31.0001 56.0146H23.1305V44.3945H31.0001V56.0146ZM20.6036 59.5078C20.6036 58.6846 21.273 58.0146 22.0958 58.0146H22.1305H31.0001V61H20.6036V59.5078ZM43.3966 59.5078V61H33.0001V58.0146H41.8697H41.9044C42.7272 58.0146 43.3966 58.6846 43.3966 59.5078ZM40.8697 56.0146H33.0001V44.3945H40.8697V56.0146ZM19.7462 42.3945V42.1328C19.7462 41.2449 19.2413 40.4805 18.5089 40.087V22.9219C18.5089 22.793 18.6178 22.6841 18.7462 22.6841H45.254C45.3824 22.6841 45.4913 22.793 45.4913 22.9219V40.0871C44.7589 40.4806 44.254 41.245 44.254 42.1328V42.3945H19.7462ZM51.3614 46.4541C51.3614 46.6338 51.21 46.7852 51.0303 46.7852H46.5851C46.4054 46.7852 46.254 46.6338 46.254 46.4541V42.1328C46.254 41.9531 46.4054 41.8017 46.5851 41.8017H51.0304C51.2101 41.8017 51.3615 41.9531 51.3615 42.1328L51.3614 46.4541ZM50.1236 39.8018H47.4913V33.0762H50.1236V39.8018ZM55.6378 30.6138C55.6378 30.8643 55.4259 31.0762 55.1754 31.0762H51.1236H47.4913V24.7793H52.4893C54.2251 24.7793 55.6377 26.1919 55.6377 27.9277L55.6378 30.6138Z" fill="#5BA9D6"/>
<path d="M38.6027 25.5898H25.3977C23.0447 25.5898 21.1306 27.5039 21.1306 29.8564C21.1306 32.2089 23.0447 34.123 25.3977 34.123H38.6028C40.9558 34.123 42.8699 32.2089 42.8699 29.8564C42.8699 27.5039 40.9558 25.5898 38.6027 25.5898ZM38.6027 32.123H25.3977C24.1477 32.123 23.1306 31.1064 23.1306 29.8564C23.1306 28.6064 24.1477 27.5898 25.3977 27.5898H38.6028C39.8528 27.5898 40.8699 28.6064 40.8699 29.8564C40.8699 31.1064 39.8527 32.123 38.6027 32.123Z" fill="#5BA9D6"/>
</svg>
