<svg width="2048" height="2048" viewBox="0 0 2048 2048" fill="none" xmlns="http://www.w3.org/2000/svg">
<rect width="2048" height="2048" fill="none"/>
<g clip-path="url(#clip0_0_1)">
<path fill-rule="evenodd" clip-rule="evenodd" d="M377 1671H1785V1785H263V263H377V1671Z" fill="#3394CB"/>
<path d="M1088 1392C1110.09 1392 1130.09 1400.96 1144.57 1415.43C1159.04 1429.91 1168 1449.91 1168 1472C1168 1494.09 1159.04 1514.09 1144.57 1528.57C1130.09 1543.04 1110.09 1552 1088 1552C1065.91 1552 1045.91 1543.04 1031.43 1528.57C1016.96 1514.09 1008 1494.09 1008 1472C1008 1449.91 1016.96 1429.91 1031.43 1415.43C1045.91 1400.96 1065.91 1392 1088 1392Z" fill="#BCBCBC"/>
<path d="M1072 1024C1094.09 1024 1114.09 1032.96 1128.57 1047.43C1143.04 1061.91 1152 1081.91 1152 1104C1152 1126.09 1143.04 1146.09 1128.57 1160.57C1114.09 1175.04 1094.09 1184 1072 1184C1049.91 1184 1029.91 1175.04 1015.43 1160.57C1000.96 1146.09 992 1126.09 992 1104C992 1081.91 1000.96 1061.91 1015.43 1047.43C1029.91 1032.96 1049.91 1024 1072 1024Z" fill="#2976A2"/>
<path d="M704 847.998C726.089 847.998 746.09 856.954 760.567 871.432C775.045 885.909 784.001 905.911 784.001 927.998C784.001 950.087 775.045 970.088 760.567 984.564C746.09 999.042 726.089 1008 704 1008C681.914 1008 661.912 999.042 647.435 984.564C632.957 970.088 624 950.087 624 927.998C624 905.911 632.957 885.909 647.435 871.432C661.912 856.954 681.914 847.998 704 847.998Z" fill="#BCBCBC"/>
<path d="M752 1120C774.089 1120 794.09 1128.96 808.567 1143.43C823.045 1157.91 832.001 1177.91 832.001 1200C832.001 1222.09 823.045 1242.09 808.567 1256.57C794.09 1271.04 774.089 1280 752 1280C729.914 1280 709.912 1271.04 695.435 1256.57C680.957 1242.09 672 1222.09 672 1200C672 1177.91 680.957 1157.91 695.435 1143.43C709.912 1128.96 729.914 1120 752 1120Z" fill="#3394CB"/>
<path d="M864.001 527.998C886.09 527.998 906.091 536.954 920.568 551.432C935.046 565.909 944.002 585.911 944.002 607.998C944.002 630.087 935.046 650.088 920.568 664.564C906.091 679.042 886.09 687.999 864.001 687.999C841.915 687.999 821.913 679.042 807.436 664.564C792.958 650.088 784.001 630.087 784.001 607.998C784.001 585.911 792.958 565.909 807.436 551.432C821.913 536.954 841.915 527.998 864.001 527.998Z" fill="#2976A2"/>
<path d="M1463.43 1159.43C1485.52 1159.43 1505.52 1168.39 1520 1182.86C1534.47 1197.34 1543.43 1217.34 1543.43 1239.43C1543.43 1261.52 1534.47 1281.52 1520 1296C1505.52 1310.47 1485.52 1319.43 1463.43 1319.43C1441.34 1319.43 1421.34 1310.47 1406.86 1296C1392.39 1281.52 1383.43 1261.52 1383.43 1239.43C1383.43 1217.34 1392.39 1197.34 1406.86 1182.86C1421.34 1168.39 1441.34 1159.43 1463.43 1159.43Z" fill="#3394CB"/>
<path d="M576 495.998C598.089 495.998 618.09 504.954 632.567 519.432C647.045 533.909 656.001 553.911 656.001 575.998C656.001 598.087 647.045 618.088 632.567 632.564C618.09 647.042 598.089 655.999 576 655.999C553.914 655.999 533.912 647.042 519.435 632.564C504.957 618.088 496 598.087 496 575.998C496 553.911 504.957 533.909 519.435 519.432C533.912 504.954 553.914 495.998 576 495.998Z" fill="#3394CB"/>
</g>
<defs>
<clipPath id="clip0_0_1">
<rect width="2048" height="2048" fill="white"/>
</clipPath>
</defs>
</svg>
