<svg width="256" height="256" viewBox="0 0 256 256" fill="none" xmlns="http://www.w3.org/2000/svg">
<rect width="256" height="256" fill="none"/>
<path d="M69.3501 139.15V194.83H73.3501V143.15H89.5601V194.83H93.5601V139.15H69.3501Z" fill="#3394CB"/>
<path d="M180.7 139.15V194.83H184.7V143.15H200.92V194.83H204.92V139.15H180.7Z" fill="#3394CB"/>
<path d="M106.46 97.47V194.83H110.46V101.47H126.68V194.83H130.68V97.47H106.46Z" fill="#3394CB"/>
<path d="M143.58 143.48V194.83H147.58V147.48H163.8V194.83H167.8V143.48H143.58Z" fill="#3394CB"/>
<path d="M52.5498 80.48V146.89V216.74H219.46V80.48H52.5498ZM215.46 212.74H56.5498V194.83H215.46V212.74ZM200.92 190.83H56.5498V150V84.48H215.46V190.83H200.92Z" fill="#3394CB"/>
<path d="M110.42 66.1499L107.62 69.2299L97.3599 80.4799L93.7199 84.4799L56.5499 125.27L52.5499 129.66L33.8599 150.17L36.8599 152.87L52.5899 135.61L56.5899 131.22L99.1399 84.4799L102.79 80.4799L110.58 71.9299L113.38 68.8499C112.089 68.3532 111.033 67.3894 110.42 66.1499Z" fill="#3394CB"/>
<path d="M202.92 39.26V43.26H215.44L179.66 80.48L175.81 84.48L158.15 102.85L155.85 105.24L153.66 102.83L137 84.48L133.37 80.48L123.12 69.24L120.31 66.16C119.687 67.4045 118.615 68.366 117.31 68.85L120.12 71.94L127.89 80.48L131.53 84.48L149.88 104.66L152.58 107.66C153.52 106.971 154.655 106.6 155.82 106.6C156.985 106.6 158.12 106.971 159.06 107.66L161.85 104.76L181.32 84.51L185.16 80.51L218.1 46.26V58.1H222.1V39.26H202.92Z" fill="#3394CB"/>
<path d="M161.89 104.73C160.199 103.34 158.079 102.576 155.89 102.57C153.73 102.572 151.635 103.309 149.95 104.66C148.412 105.891 147.294 107.568 146.749 109.461C146.204 111.354 146.258 113.369 146.905 115.229C147.552 117.09 148.76 118.704 150.362 119.85C151.964 120.996 153.881 121.617 155.851 121.629C157.82 121.64 159.745 121.041 161.36 119.914C162.976 118.787 164.202 117.187 164.871 115.334C165.539 113.481 165.617 111.467 165.094 109.568C164.571 107.669 163.473 105.979 161.95 104.73H161.89ZM155.89 117.64C154.724 117.637 153.589 117.265 152.647 116.578C151.705 115.891 151.004 114.924 150.645 113.815C150.285 112.705 150.286 111.511 150.646 110.402C151.006 109.293 151.707 108.326 152.65 107.64C153.589 106.951 154.724 106.58 155.89 106.58C157.055 106.58 158.19 106.951 159.13 107.64C160.072 108.326 160.773 109.293 161.134 110.402C161.494 111.511 161.494 112.705 161.135 113.815C160.775 114.924 160.075 115.891 159.133 116.578C158.191 117.265 157.056 117.637 155.89 117.64Z" fill="#3394CB"/>
<path d="M115.37 54.1599C113.619 54.1607 111.903 54.6437 110.408 55.556C108.914 56.4683 107.7 57.7746 106.899 59.3315C106.099 60.8884 105.742 62.6358 105.869 64.3819C105.997 66.128 106.602 67.8054 107.62 69.2299C108.996 71.1635 111.045 72.5132 113.365 73.0145C115.685 73.5158 118.108 73.1326 120.16 71.9399C121.969 70.8842 123.381 69.2623 124.177 67.3246C124.973 65.3868 125.109 63.241 124.564 61.2183C124.019 59.1955 122.823 57.4084 121.162 56.1327C119.5 54.8571 117.465 54.1638 115.37 54.1599ZM120.69 65.4199C119.964 66.8851 118.795 68.085 117.35 68.8499C116.715 69.1069 116.035 69.236 115.35 69.2299C114.665 69.2337 113.986 69.1046 113.35 68.8499C112.41 68.4875 111.587 67.8753 110.97 67.0794C110.353 66.2836 109.965 65.3342 109.848 64.3339C109.73 63.3336 109.889 62.3202 110.305 61.4033C110.722 60.4863 111.381 59.7004 112.211 59.1306C113.042 58.5608 114.012 58.2285 115.017 58.1698C116.023 58.111 117.025 58.328 117.916 58.7973C118.808 59.2665 119.554 59.9702 120.074 60.8325C120.595 61.6947 120.87 62.6827 120.87 63.6899C120.9 64.5799 121.07 64.6799 120.69 65.4199Z" fill="#3394CB"/>
</svg>
