<svg width="64" height="64" viewBox="0 0 64 64" fill="none" xmlns="http://www.w3.org/2000/svg">
<rect width="64" height="64" fill="none"/>
<path d="M58.4922 5.87207H5.5078C3.022 5.87207 1 7.89447 1 10.3799V53.6201C1 56.1055 3.022 58.1279 5.5078 58.1279H58.4922C60.978 58.1279 63 56.1054 63 53.6201V10.3799C63 7.89447 60.978 5.87207 58.4922 5.87207ZM5.5078 7.87207H58.4922C59.875 7.87207 61 8.99707 61 10.3799V17.2686H3V10.3799C3 8.99707 4.125 7.87207 5.5078 7.87207ZM58.4922 56.1279H5.5078C4.125 56.1279 3 55.0029 3 53.6201V19.2686H61V53.6202C61 55.0029 59.875 56.1279 58.4922 56.1279Z" fill="#3394CB"/>
<path d="M46.7237 15.7842C48.4981 15.7842 49.9415 14.3428 49.9415 12.5703C49.9415 10.7959 48.4981 9.35254 46.7237 9.35254C44.9493 9.35254 43.5059 10.7959 43.5059 12.5703C43.506 14.3428 44.9493 15.7842 46.7237 15.7842ZM46.7237 11.3525C47.3951 11.3525 47.9415 11.8984 47.9415 12.5703C47.9415 13.2392 47.3951 13.7842 46.7237 13.7842C46.0523 13.7842 45.5059 13.2393 45.5059 12.5703C45.506 11.8984 46.0523 11.3525 46.7237 11.3525Z" fill="#3394CB"/>
<path d="M37.9287 15.7842C39.7031 15.7842 41.1465 14.3428 41.1465 12.5703C41.1465 10.7959 39.7031 9.35254 37.9287 9.35254C36.1548 9.35254 34.7114 10.7959 34.7114 12.5703C34.7114 14.3428 36.1548 15.7842 37.9287 15.7842ZM37.9287 11.3525C38.6001 11.3525 39.1465 11.8984 39.1465 12.5703C39.1465 13.2392 38.6001 13.7842 37.9287 13.7842C37.2573 13.7842 36.7114 13.2393 36.7114 12.5703C36.7114 11.8984 37.2573 11.3525 37.9287 11.3525Z" fill="#3394CB"/>
<path d="M55.5186 15.7842C57.2925 15.7842 58.7359 14.3428 58.7359 12.5703C58.7359 10.7959 57.2925 9.35254 55.5186 9.35254C53.7442 9.35254 52.3008 10.7959 52.3008 12.5703C52.3008 14.3428 53.7441 15.7842 55.5186 15.7842ZM55.5186 11.3525C56.19 11.3525 56.7359 11.8984 56.7359 12.5703C56.7359 13.2392 56.19 13.7842 55.5186 13.7842C54.8472 13.7842 54.3008 13.2393 54.3008 12.5703C54.3008 11.8984 54.8472 11.3525 55.5186 11.3525Z" fill="#3394CB"/>
<path d="M6.96444 23.4161C6.52254 23.7472 6.43314 24.3741 6.76474 24.8155L6.77504 24.8292C6.96984 25.0899 7.26574 25.2257 7.56604 25.2257C7.77554 25.2257 7.98794 25.1593 8.16954 25.0226C8.61144 24.6915 8.69594 24.0578 8.36434 23.6163C8.03374 23.1739 7.40774 23.0851 6.96444 23.4161Z" fill="#3394CB"/>
<path d="M7.27502 31.4921C7.48452 31.4921 7.69692 31.4257 7.87852 31.289C8.32042 30.9579 8.40493 30.3242 8.07333 29.8827C7.74223 29.4403 7.11722 29.3514 6.67342 29.6825C6.23152 30.0136 6.14212 30.6405 6.47372 31.0819L6.48402 31.0956C6.67882 31.3563 6.97472 31.4921 7.27502 31.4921Z" fill="#3394CB"/>
<path d="M6.48402 37.3857C6.67882 37.6464 6.97472 37.7822 7.27502 37.7822C7.48452 37.7822 7.69692 37.7158 7.87852 37.5791C8.32042 37.248 8.40493 36.6143 8.07333 36.1728C7.74223 35.7304 7.11722 35.6425 6.67342 35.9726C6.23152 36.3037 6.14212 36.9306 6.47372 37.372L6.48402 37.3857Z" fill="#3394CB"/>
<path d="M6.48402 43.922C6.67882 44.1827 6.97472 44.3185 7.27502 44.3185C7.48452 44.3185 7.69692 44.2521 7.87852 44.1154C8.32042 43.7843 8.40493 43.1506 8.07333 42.7091C7.74223 42.2667 7.11722 42.1778 6.67342 42.5089C6.23152 42.84 6.14212 43.4669 6.47372 43.9083L6.48402 43.922Z" fill="#3394CB"/>
<path d="M6.76974 48.4776C6.29264 48.7559 6.13154 49.3682 6.40984 49.8458L6.42014 49.8634C6.60474 50.1798 6.93384 50.3536 7.27364 50.3536C7.44604 50.3536 7.62174 50.3087 7.78244 50.2149C8.25954 49.9366 8.41574 49.3155 8.13744 48.8379C7.85914 48.3624 7.24824 48.2013 6.76974 48.4776Z" fill="#3394CB"/>
<path d="M44.0616 44.3398C43.7149 43.9101 43.085 43.8437 42.6553 44.1914L39.6133 46.6514C39.3784 46.8409 39.2422 47.127 39.2422 47.4287C39.2422 47.7314 39.3789 48.0166 39.6138 48.207L42.6558 50.664C42.8409 50.8134 43.063 50.8857 43.2837 50.8857C43.5752 50.8857 43.8648 50.7587 44.062 50.5136C44.4092 50.0839 44.3423 49.455 43.9126 49.1073L41.833 47.4286L43.9131 45.746C44.3424 45.3994 44.4093 44.7695 44.0616 44.3398Z" fill="#3394CB"/>
<path d="M48.3015 44.0263C47.7795 43.8417 47.2087 44.1122 47.0242 44.6327L45.2722 49.5497C45.0867 50.0702 45.3581 50.6425 45.8786 50.828C45.9894 50.8671 46.1027 50.8856 46.214 50.8856C46.6251 50.8856 47.0104 50.6307 47.1559 50.2215L48.9079 45.3045C49.0935 44.7841 48.822 44.2118 48.3015 44.0263Z" fill="#3394CB"/>
<path d="M51.5104 44.1914C51.0812 43.8428 50.4518 43.9111 50.1037 44.3398C49.7565 44.7695 49.8234 45.3994 50.2526 45.7461L52.3327 47.4287L50.2531 49.1074C49.8234 49.4551 49.7565 50.084 50.1037 50.5137C50.301 50.7588 50.5905 50.8858 50.882 50.8858C51.1027 50.8858 51.3249 50.8135 51.5099 50.6641L54.5524 48.2071C54.7873 48.0167 54.924 47.7315 54.924 47.4288C54.924 47.127 54.7878 46.8409 54.5529 46.6515L51.5104 44.1914Z" fill="#3394CB"/>
<path d="M13.7686 37.7793H27.5254C28.0776 37.7793 28.5254 37.332 28.5254 36.7793C28.5254 36.2266 28.0776 35.7793 27.5254 35.7793H13.7686C13.2164 35.7793 12.7686 36.2266 12.7686 36.7793C12.7686 37.332 13.2163 37.7793 13.7686 37.7793Z" fill="#3394CB"/>
<path d="M33.7129 42.0625H13.7686C13.2164 42.0625 12.7686 42.5098 12.7686 43.0625C12.7686 43.6152 13.2164 44.0625 13.7686 44.0625H33.7129C34.2651 44.0625 34.7129 43.6152 34.7129 43.0625C34.7129 42.5098 34.2651 42.0625 33.7129 42.0625Z" fill="#3394CB"/>
<path d="M25.1641 48.3418H13.7686C13.2164 48.3418 12.7686 48.7891 12.7686 49.3418C12.7686 49.8945 13.2164 50.3418 13.7686 50.3418H25.1641C25.7163 50.3418 26.1641 49.8945 26.1641 49.3418C26.1641 48.7891 25.7163 48.3418 25.1641 48.3418Z" fill="#3394CB"/>
<path d="M13.7686 31.4961H27.5254C28.0776 31.4961 28.5254 31.0488 28.5254 30.4961C28.5254 29.9434 28.0776 29.4961 27.5254 29.4961H13.7686C13.2164 29.4961 12.7686 29.9434 12.7686 30.4961C12.7686 31.0488 13.2163 31.4961 13.7686 31.4961Z" fill="#3394CB"/>
<path d="M13.7686 25.2158H27.5254C28.0776 25.2158 28.5254 24.7685 28.5254 24.2158C28.5254 23.6631 28.0776 23.2158 27.5254 23.2158H13.7686C13.2164 23.2158 12.7686 23.6631 12.7686 24.2158C12.7686 24.7685 13.2163 25.2158 13.7686 25.2158Z" fill="#3394CB"/>
<path d="M47.9658 23.2158H34.209C33.6568 23.2158 33.209 23.6631 33.209 24.2158C33.209 24.7685 33.6568 25.2158 34.209 25.2158H47.9658C48.518 25.2158 48.9658 24.7685 48.9658 24.2158C48.9658 23.6631 48.5181 23.2158 47.9658 23.2158Z" fill="#3394CB"/>
<path d="M47.9658 35.7793H34.209C33.6568 35.7793 33.209 36.2266 33.209 36.7793C33.209 37.332 33.6568 37.7793 34.209 37.7793H47.9658C48.518 37.7793 48.9658 37.332 48.9658 36.7793C48.9658 36.2266 48.5181 35.7793 47.9658 35.7793Z" fill="#3394CB"/>
</svg>
